<svg width="16" height="17" viewBox="0 0 16 17" fill="none" xmlns="http://www.w3.org/2000/svg">
<path d="M7.99972 10.4667C7.91083 10.4667 7.82749 10.4527 7.74972 10.4247C7.67194 10.3971 7.59972 10.35 7.53305 10.2833L4.44972 7.2C4.32749 7.07778 4.26927 6.92489 4.27505 6.74134C4.28038 6.55823 4.34416 6.40556 4.46638 6.28334C4.5886 6.16112 4.74416 6.1 4.93305 6.1C5.12194 6.1 5.27749 6.16112 5.39972 6.28334L7.99972 8.88334L10.6164 6.26667C10.7386 6.14445 10.8915 6.086 11.075 6.09134C11.2582 6.09712 11.4108 6.16112 11.533 6.28334C11.6553 6.40556 11.7164 6.56112 11.7164 6.75C11.7164 6.93889 11.6553 7.09445 11.533 7.21667L8.46638 10.2833C8.39972 10.35 8.32749 10.3971 8.24972 10.4247C8.17194 10.4527 8.0886 10.4667 7.99972 10.4667Z" fill="#1A1A33"/>
</svg>
