<svg width="24" height="24" viewBox="0 0 24 24" fill="none" xmlns="http://www.w3.org/2000/svg">
<path d="M11.9998 17C13.2498 17 14.3125 16.5627 15.1878 15.688C16.0625 14.8127 16.4998 13.75 16.4998 12.5C16.4998 11.25 16.0625 10.1873 15.1878 9.312C14.3125 8.43733 13.2498 8 11.9998 8C10.7498 8 9.68714 8.43733 8.8118 9.312C7.93714 10.1873 7.4998 11.25 7.4998 12.5C7.4998 13.75 7.93714 14.8127 8.8118 15.688C9.68714 16.5627 10.7498 17 11.9998 17ZM11.9998 15.2C11.2498 15.2 10.6125 14.9373 10.0878 14.412C9.56247 13.8873 9.2998 13.25 9.2998 12.5C9.2998 11.75 9.56247 11.1123 10.0878 10.587C10.6125 10.0623 11.2498 9.8 11.9998 9.8C12.7498 9.8 13.3875 10.0623 13.9128 10.587C14.4375 11.1123 14.6998 11.75 14.6998 12.5C14.6998 13.25 14.4375 13.8873 13.9128 14.412C13.3875 14.9373 12.7498 15.2 11.9998 15.2ZM11.9998 20C9.68314 20 7.56647 19.3877 5.64981 18.163C3.73314 16.9377 2.28314 15.2833 1.2998 13.2C1.2498 13.1167 1.21647 13.0123 1.1998 12.887C1.18314 12.7623 1.1748 12.6333 1.1748 12.5C1.1748 12.3667 1.18314 12.2373 1.1998 12.112C1.21647 11.9873 1.2498 11.8833 1.2998 11.8C2.28314 9.71667 3.73314 8.06267 5.64981 6.838C7.56647 5.61267 9.68314 5 11.9998 5C14.3165 5 16.4331 5.61267 18.3498 6.838C20.2665 8.06267 21.7165 9.71667 22.6998 11.8C22.7498 11.8833 22.7831 11.9873 22.7998 12.112C22.8165 12.2373 22.8248 12.3667 22.8248 12.5C22.8248 12.6333 22.8165 12.7623 22.7998 12.887C22.7831 13.0123 22.7498 13.1167 22.6998 13.2C21.7165 15.2833 20.2665 16.9377 18.3498 18.163C16.4331 19.3877 14.3165 20 11.9998 20ZM11.9998 18C13.8831 18 15.6125 17.504 17.1878 16.512C18.7625 15.5207 19.9665 14.1833 20.7998 12.5C19.9665 10.8167 18.7625 9.479 17.1878 8.487C15.6125 7.49567 13.8831 7 11.9998 7C10.1165 7 8.38714 7.49567 6.8118 8.487C5.23714 9.479 4.03314 10.8167 3.1998 12.5C4.03314 14.1833 5.23714 15.5207 6.8118 16.512C8.38714 17.504 10.1165 18 11.9998 18Z" fill="#454B57"/>
</svg>
