<svg width="18" height="16" viewBox="0 0 18 16" fill="none" xmlns="http://www.w3.org/2000/svg">
<path d="M2.33464 15.5C1.8763 15.5 1.48408 15.3369 1.15797 15.0108C0.831302 14.6842 0.667969 14.2917 0.667969 13.8333V2.16667C0.667969 1.70833 0.831302 1.31583 1.15797 0.989167C1.48408 0.663055 1.8763 0.5 2.33464 0.5H7.33464C7.79297 0.5 8.18547 0.663055 8.51214 0.989167C8.83825 1.31583 9.0013 1.70833 9.0013 2.16667V3.83333H15.668C16.1263 3.83333 16.5188 3.99639 16.8455 4.3225C17.1716 4.64917 17.3346 5.04167 17.3346 5.5V13.8333C17.3346 14.2917 17.1716 14.6842 16.8455 15.0108C16.5188 15.3369 16.1263 15.5 15.668 15.5H2.33464ZM2.33464 13.8333H7.33464V12.1667H2.33464V13.8333ZM2.33464 10.5H7.33464V8.83333H2.33464V10.5ZM2.33464 7.16667H7.33464V5.5H2.33464V7.16667ZM2.33464 3.83333H7.33464V2.16667H2.33464V3.83333ZM9.0013 13.8333H15.668V5.5H9.0013V13.8333ZM10.668 8.83333V7.16667H14.0013V8.83333H10.668ZM10.668 12.1667V10.5H14.0013V12.1667H10.668Z" fill="#454B57"/>
</svg>
