<svg width="8" height="8" viewBox="0 0 8 8" fill="none" xmlns="http://www.w3.org/2000/svg">
<path d="M3.99844 4.6999L1.54844 7.1499C1.45677 7.24157 1.3401 7.2874 1.19844 7.2874C1.05677 7.2874 0.940104 7.24157 0.848437 7.1499C0.756771 7.05824 0.710938 6.94157 0.710938 6.7999C0.710938 6.65824 0.756771 6.54157 0.848437 6.4499L3.29844 3.9999L0.848437 1.5499C0.756771 1.45824 0.710938 1.34157 0.710938 1.1999C0.710938 1.05824 0.756771 0.941569 0.848437 0.849902C0.940104 0.758235 1.05677 0.712402 1.19844 0.712402C1.3401 0.712402 1.45677 0.758235 1.54844 0.849902L3.99844 3.2999L6.44844 0.849902C6.5401 0.758235 6.65677 0.712402 6.79844 0.712402C6.9401 0.712402 7.05677 0.758235 7.14844 0.849902C7.2401 0.941569 7.28594 1.05824 7.28594 1.1999C7.28594 1.34157 7.2401 1.45824 7.14844 1.5499L4.69844 3.9999L7.14844 6.4499C7.2401 6.54157 7.28594 6.65824 7.28594 6.7999C7.28594 6.94157 7.2401 7.05824 7.14844 7.1499C7.05677 7.24157 6.9401 7.2874 6.79844 7.2874C6.65677 7.2874 6.5401 7.24157 6.44844 7.1499L3.99844 4.6999Z" fill="#1D2433"/>
</svg>
