<svg width="8" height="8" viewBox="0 0 8 8" fill="none" xmlns="http://www.w3.org/2000/svg">
<path d="M3.99844 4.70002L1.54844 7.15002C1.45677 7.24169 1.3401 7.28753 1.19844 7.28753C1.05677 7.28753 0.940104 7.24169 0.848437 7.15002C0.756771 7.05836 0.710938 6.94169 0.710938 6.80003C0.710938 6.65836 0.756771 6.54169 0.848437 6.45002L3.29844 4.00002L0.848437 1.55002C0.756771 1.45836 0.710938 1.34169 0.710938 1.20002C0.710938 1.05836 0.756771 0.941691 0.848437 0.850024C0.940104 0.758358 1.05677 0.712524 1.19844 0.712524C1.3401 0.712524 1.45677 0.758358 1.54844 0.850024L3.99844 3.30002L6.44844 0.850024C6.5401 0.758358 6.65677 0.712524 6.79844 0.712524C6.9401 0.712524 7.05677 0.758358 7.14844 0.850024C7.2401 0.941691 7.28594 1.05836 7.28594 1.20002C7.28594 1.34169 7.2401 1.45836 7.14844 1.55002L4.69844 4.00002L7.14844 6.45002C7.2401 6.54169 7.28594 6.65836 7.28594 6.80003C7.28594 6.94169 7.2401 7.05836 7.14844 7.15002C7.05677 7.24169 6.9401 7.28753 6.79844 7.28753C6.65677 7.28753 6.5401 7.24169 6.44844 7.15002L3.99844 4.70002Z" fill="#E02D3C"/>
</svg>
