<svg width="244" height="225" viewBox="0 0 244 225" fill="none" xmlns="http://www.w3.org/2000/svg">
<g clip-path="url(#clip0_4193_56049)">
<path d="M83.4453 65.9971L42.4221 54.9205L50.222 26.0328L91.2452 37.1094L83.4453 65.9971Z" stroke="#0089B4" stroke-width="0.539721" stroke-linecap="round" stroke-linejoin="round"/>
<path d="M38.9724 65.0286C49.4678 65.0286 57.9759 56.5205 57.9759 46.0251C57.9759 35.5297 49.4678 27.0215 38.9724 27.0215C28.477 27.0215 19.9688 35.5297 19.9688 46.0251C19.9688 56.5205 28.477 65.0286 38.9724 65.0286Z" fill="#D9EDF4"/>
<path d="M28.1945 185.567L71.2087 175.715C74.2594 175.017 77.2989 176.923 77.9978 179.974L84.2996 207.489C84.9984 210.54 83.0917 213.58 80.0408 214.278L37.0266 224.13C33.9759 224.828 30.9362 222.922 30.2375 219.871L23.9357 192.356C23.2373 189.305 25.144 186.266 28.1945 185.567Z" fill="#0089B4" stroke="#0089B4" stroke-width="0.539721"/>
<path d="M69.0743 180.639L32.2105 189.082C29.7902 189.636 28.2775 192.048 28.8318 194.468L33.725 215.833C34.2794 218.253 36.6908 219.766 39.1112 219.212L75.975 210.769C78.3953 210.214 79.908 207.803 79.3536 205.383L74.4604 184.018C73.9061 181.597 71.4947 180.085 69.0743 180.639Z" fill="#D9EDF4"/>
<path d="M37.1394 194.09L55.2743 189.937C55.71 189.837 56.1442 190.11 56.2442 190.545L57.9384 197.943C58.0382 198.379 57.7658 198.813 57.33 198.913L39.1951 203.066C38.7594 203.166 38.325 202.893 38.2252 202.458L36.531 195.06C36.4314 194.625 36.7039 194.19 37.1394 194.09Z" fill="#0089B4" stroke="#0089B4" stroke-width="0.539721"/>
<path d="M48.5574 205.997L71.6118 200.717C72.0474 200.617 72.4817 200.89 72.5817 201.325L73.7446 206.403C73.8442 206.839 73.5717 207.273 73.1362 207.373L50.0817 212.653C49.6461 212.753 49.2118 212.48 49.1119 212.045L47.949 206.967C47.8494 206.531 48.1218 206.097 48.5574 205.997Z" fill="#0089B4" stroke="#0089B4" stroke-width="0.539721"/>
<path d="M163.748 46.7341L207.005 38.0119C210.073 37.3933 213.062 39.3791 213.68 42.447L219.26 70.1176C219.878 73.1857 217.893 76.1743 214.825 76.7929L171.567 85.5151C168.499 86.1335 165.511 84.148 164.892 81.0801L159.313 53.4094C158.694 50.3416 160.68 47.3529 163.748 46.7341Z" fill="#0089B4" stroke="#0089B4" stroke-width="0.539721"/>
<path d="M206.776 42.2028L191.475 45.288C190.406 45.5037 189.714 46.5454 189.93 47.6149L195.273 74.1161C195.489 75.1856 196.531 75.8777 197.6 75.6621L212.901 72.5769C213.97 72.3613 214.662 71.3195 214.447 70.2501L209.103 43.7488C208.887 42.6793 207.846 41.9872 206.776 42.2028Z" fill="#D9EDF4"/>
<path d="M184.223 46.7487L165.768 50.4697C164.699 50.6853 164.007 51.7271 164.222 52.7965L165.601 59.6321C165.816 60.7016 166.858 61.3937 167.928 61.1781L186.382 57.4571C187.451 57.2415 188.143 56.1997 187.928 55.1303L186.549 48.2946C186.334 47.2252 185.292 46.533 184.223 46.7487Z" fill="#D9EDF4"/>
<path d="M190.456 73.0696L170.246 77.1448C169.661 77.2626 169.283 77.8319 169.401 78.4163L169.755 80.1728C169.873 80.7572 170.442 81.1354 171.027 81.0176L191.237 76.9424C191.822 76.8246 192.2 76.2553 192.082 75.6709L191.728 73.9144C191.61 73.33 191.041 72.9518 190.456 73.0696Z" fill="#D9EDF4"/>
<path d="M174.575 62.8757L168.507 64.0993C167.437 64.3149 166.745 65.3567 166.961 66.4262L168.184 72.4946C168.4 73.5641 169.442 74.2562 170.511 74.0406L176.58 72.817C177.649 72.6013 178.341 71.5596 178.126 70.4901L176.902 64.4216C176.686 63.3522 175.645 62.66 174.575 62.8757Z" fill="#D9EDF4"/>
<path d="M186.349 60.4999L180.28 61.7236C179.211 61.9392 178.519 62.981 178.734 64.0504L179.958 70.1189C180.173 71.1883 181.215 71.8805 182.285 71.6649L188.353 70.4412C189.423 70.2256 190.115 69.1838 189.899 68.1144L188.675 62.0459C188.46 60.9765 187.418 60.2843 186.349 60.4999Z" fill="#D9EDF4"/>
<path d="M115.91 7.79175C116.207 9.20582 116.401 10.6253 116.557 12.0448C116.714 13.4642 116.822 14.8945 116.908 16.3193C116.995 17.7442 117.027 19.1745 117.021 20.6047C117.016 22.035 116.978 23.4707 116.833 24.9225C116.544 23.5148 116.326 22.0936 116.18 20.6641C116.018 19.2392 115.915 17.8144 115.829 16.3895C115.742 14.9646 115.71 13.5344 115.721 12.1041C115.711 10.6644 115.774 9.22508 115.91 7.79175Z" fill="#0089B4"/>
<path d="M124.901 15.8828C123.494 16.1732 122.073 16.3894 120.643 16.5305C119.224 16.6978 117.799 16.795 116.374 16.8813C114.949 16.9677 113.519 17.0055 112.056 16.9947C110.615 17.0047 109.173 16.9417 107.738 16.8058C109.146 16.5162 110.567 16.2982 111.997 16.1527C113.416 15.9908 114.846 15.8936 116.271 15.8073C117.696 15.7209 119.126 15.6885 120.557 15.6939C121.987 15.6993 123.466 15.7371 124.901 15.8828ZM127.179 18.263C127.441 19.1991 127.632 20.1535 127.751 21.1181C127.881 22.0788 127.978 23.0341 128.026 23.9948C128.075 24.9555 128.091 25.9163 128.064 26.8824C128.048 27.8555 127.96 28.8261 127.8 29.7861C127.536 28.85 127.343 27.8957 127.222 26.9309C127.093 25.9702 127.001 25.0149 126.952 24.0542C126.904 23.0935 126.888 22.1274 126.915 21.1667C126.931 20.1936 127.019 19.223 127.179 18.263Z" fill="#0089B4"/>
<path d="M133.246 23.7364C132.31 23.998 131.355 24.1892 130.391 24.3086C129.43 24.4435 128.475 24.5352 127.514 24.5838C126.553 24.6324 125.587 24.6486 124.626 24.6216C123.653 24.6056 122.683 24.5172 121.723 24.3571C122.659 24.0964 123.613 23.9034 124.578 23.7796C125.533 23.6501 126.494 23.5583 127.454 23.5098C128.415 23.4612 129.376 23.445 130.342 23.472C131.315 23.488 132.286 23.5764 133.246 23.7364Z" fill="#0089B4"/>
<path d="M8.12841 162.032C8.42525 163.446 8.61955 164.866 8.77607 166.285C8.93259 167.704 9.04054 169.135 9.12689 170.56C9.21325 171.984 9.24563 173.415 9.24023 174.845C9.24834 176.287 9.1835 177.728 9.04593 179.163C8.74909 177.743 8.55479 176.324 8.39827 174.904C8.24175 173.485 8.1338 172.055 8.04745 170.63C7.96109 169.205 7.92871 167.775 7.9395 166.344C7.92674 164.905 7.9898 163.465 8.12841 162.032Z" fill="#0089B4"/>
<path d="M17.1557 170.131C15.7486 170.422 14.3271 170.638 12.8973 170.779C11.4778 170.946 10.053 171.043 8.62269 171.13C7.19243 171.216 5.76757 171.254 4.3373 171.243C2.89578 171.253 1.45467 171.19 0.0195312 171.054C1.42704 170.765 2.84834 170.547 4.27793 170.401C5.6974 170.239 7.12227 170.142 8.55253 170.056C9.98279 169.969 11.4077 169.937 12.8379 169.942C14.2682 169.948 15.7146 169.985 17.1557 170.131ZM19.4333 172.527C19.6948 173.464 19.8861 174.418 20.0054 175.383C20.135 176.343 20.2321 177.299 20.2807 178.259C20.3293 179.22 20.3454 180.181 20.3185 181.147C20.3025 182.12 20.2141 183.091 20.054 184.051C19.7871 183.115 19.5904 182.16 19.4657 181.195C19.3362 180.235 19.239 179.279 19.1904 178.319C19.1419 177.358 19.1311 176.397 19.1581 175.431C19.1776 174.458 19.2696 173.487 19.4333 172.527Z" fill="#0089B4"/>
<path d="M25.5245 177.967C24.5865 178.228 23.6303 178.42 22.664 178.539C21.7087 178.674 20.7534 178.766 19.7927 178.815C18.832 178.863 17.8659 178.879 16.8998 178.852C15.9267 178.836 14.9562 178.748 13.9961 178.588C14.9347 178.328 15.8906 178.135 16.8566 178.011C17.8119 177.881 18.7726 177.789 19.7333 177.741C20.694 177.692 21.6547 177.676 22.6208 177.703C23.594 177.719 24.5645 177.807 25.5245 177.967ZM226.587 139.464C226.884 140.878 227.078 142.303 227.235 143.722C227.391 145.141 227.499 146.572 227.585 147.997C227.672 149.421 227.704 150.852 227.699 152.282C227.707 153.724 227.642 155.165 227.505 156.6C227.208 155.186 227.013 153.766 226.857 152.347C226.7 150.927 226.592 149.497 226.506 148.072C226.42 146.647 226.387 145.217 226.398 143.787C226.388 142.343 226.451 140.901 226.587 139.464Z" fill="#0089B4"/>
<path d="M235.601 147.574C234.187 147.871 232.767 148.065 231.343 148.222C229.918 148.378 228.498 148.486 227.068 148.573C225.638 148.659 224.213 148.697 222.783 148.686C221.341 148.696 219.9 148.633 218.465 148.497C219.872 148.208 221.294 147.99 222.723 147.844C224.143 147.682 225.568 147.585 226.998 147.499C228.428 147.412 229.853 147.375 231.283 147.385C232.725 147.375 234.166 147.438 235.601 147.574ZM237.879 149.96C238.14 150.898 238.331 151.854 238.451 152.82C238.58 153.776 238.677 154.736 238.726 155.697C238.775 156.658 238.791 157.618 238.764 158.585C238.748 159.558 238.659 160.528 238.499 161.488C238.236 160.55 238.043 159.594 237.922 158.628C237.792 157.672 237.695 156.717 237.647 155.756C237.598 154.796 237.587 153.83 237.614 152.869C237.63 151.894 237.719 150.922 237.879 149.96Z" fill="#0089B4"/>
<path d="M243.954 155.414C243.016 155.675 242.06 155.866 241.094 155.986C240.138 156.115 239.183 156.212 238.222 156.261C237.262 156.31 236.296 156.326 235.335 156.299C234.36 156.283 233.388 156.194 232.426 156.034C233.364 155.772 234.32 155.579 235.286 155.457C236.242 155.327 237.202 155.23 238.163 155.182C239.124 155.133 240.084 155.122 241.051 155.149C242.024 155.165 242.994 155.254 243.954 155.414Z" fill="#0089B4"/>
<path d="M95.8746 98.7501C96.6302 90.3305 103.263 84.9225 103.647 84.6472C107.991 81.2146 109.357 82.9147 117.14 78.5537C120.637 76.5946 123.929 74.7163 127.2 71.0624C130.293 67.6082 132.775 64.834 133.617 60.5756C134.027 58.4977 133.957 56.5547 135.539 55.1406C136.748 54.0612 138.777 53.4459 140.24 54.1583C142.442 55.2378 142.89 58.9727 142.296 61.4716C141.756 63.6898 140.526 64.4508 140.952 65.9351C141.33 67.2682 142.533 67.3545 143.721 68.7362C145.664 71.003 145.41 74.2198 145.34 75.1319C145.011 79.2824 142.258 80.1459 142.312 84.345C142.339 86.1422 142.852 86.0613 142.76 87.7398C142.609 90.7946 140.844 93.0399 139.241 95.0152C136.543 98.3453 135.436 98.0107 133.542 100.995C131.993 103.424 132.516 103.985 131.178 105.507C128.673 108.352 124.793 108.746 123.773 108.821C119.795 109.205 116.621 107.677 113.637 106.236C108.866 103.931 108.779 102.458 106.259 102.328C101.849 102.129 99.5447 106.608 97.402 105.599C95.3511 104.617 95.7829 99.7594 95.8746 98.7501ZM70.9449 110.797C63.9285 106.117 55.5305 107.925 55.0663 108.033C49.6691 109.275 50.144 111.407 41.8701 114.769C38.1568 116.275 34.6325 117.673 29.7372 117.943C25.1064 118.196 21.3931 118.401 17.5395 116.399C15.6613 115.422 14.1878 114.148 12.0937 114.505C10.5015 114.78 8.75823 115.962 8.39122 117.559C7.8515 119.945 10.4961 122.638 12.8169 123.734C14.8787 124.705 16.2496 124.214 17.1347 125.472C17.9389 126.6 17.2588 127.593 17.5935 129.385C18.1332 132.321 20.8318 134.129 21.5766 134.642C25.0254 136.979 27.4218 135.37 30.6655 138.036C32.0472 139.175 31.6694 139.521 33.0349 140.503C35.5122 142.3 38.3673 142.322 40.9148 142.306C45.1948 142.306 45.6266 141.226 49.1456 141.588C52.0061 141.901 52.114 142.667 54.1434 142.565C57.9214 142.387 60.62 139.591 61.3595 138.851C64.1444 135.985 64.927 132.553 65.6772 129.32C66.8592 124.16 65.7582 123.151 67.237 121.122C69.8331 117.554 74.7931 118.552 75.3328 116.264C75.851 114.051 71.8031 111.369 70.9449 110.797Z" fill="#D9EDF4"/>
<path d="M51.0195 139.092L50.5537 139.407L50.5488 139.41L50.5469 139.411C50.5478 139.41 50.5488 139.41 50.5498 139.409L50.5488 139.408L51.0195 139.092ZM131.516 100.523L130.98 100.699L130.976 100.701C130.777 100.766 130.576 100.826 130.375 100.883C130.568 100.822 130.761 100.765 130.952 100.702C131.183 100.629 131.412 100.551 131.642 100.475C131.599 100.491 131.558 100.508 131.516 100.523ZM139.265 86.4333L138.789 86.8201V86.821C138.616 86.958 138.438 87.09 138.26 87.2195C138.437 87.0832 138.614 86.9457 138.789 86.8064L138.788 86.8054C138.952 86.6789 139.115 86.5516 139.276 86.4226C139.272 86.426 139.269 86.4299 139.265 86.4333ZM116.401 85.4597C116.385 85.464 116.369 85.4681 116.353 85.4724C116.364 85.469 116.377 85.466 116.389 85.4626L116.388 85.4617C116.44 85.4471 116.492 85.4314 116.545 85.4167L116.401 85.4597Z" fill="#0089B4" stroke="#0089B4" stroke-width="0.539721"/>
<path d="M111.326 134.385C112.481 132.388 114.332 128.486 113.846 123.704C113.371 119.035 110.91 115.856 107.715 111.83C103.316 106.298 101.616 106.525 96.1486 100.41C91.7283 95.4657 89.2995 92.7509 88.4954 88.5356C87.4159 82.8308 88.8462 79.0581 90.3358 76.6294L59.6742 82.3019C58.1846 84.7306 55.6587 89.7176 56.7435 95.4225C57.5477 99.6431 59.9819 102.358 64.3968 107.296C69.8642 113.411 71.5589 113.185 75.9576 118.717C79.1582 122.738 81.6193 125.917 82.0889 130.591C82.5746 135.373 80.7234 139.28 79.5738 141.272L111.326 134.385Z" fill="#FFCD52"/>
<path d="M74.8934 82.7192C93.2051 79.1167 107.712 74.482 107.296 72.3674C106.88 70.2528 91.6986 71.4591 73.3868 75.0617C55.0751 78.6642 40.5677 83.2989 40.9837 85.4135C41.3997 87.5281 56.5816 86.3218 74.8934 82.7192Z" stroke="#0089B4" stroke-width="0.539721" stroke-linecap="round" stroke-linejoin="round"/>
<path d="M169.444 144.554C170.194 136.134 176.832 130.726 177.205 130.429C181.55 126.997 182.92 128.697 190.698 124.336C194.195 122.377 197.482 120.499 200.753 116.845C203.846 113.39 206.328 110.616 207.17 106.358C207.586 104.28 207.51 102.337 209.097 100.923C210.306 99.8434 212.335 99.2281 213.793 99.9406C215.995 101.02 216.443 104.755 215.849 107.254C215.309 109.472 214.079 110.233 214.505 111.717C214.883 113.05 216.086 113.137 217.274 114.518C219.222 116.785 218.963 120.002 218.893 120.914C218.558 125.065 215.806 125.928 215.865 130.127C215.865 131.924 216.405 131.843 216.308 133.522C216.157 136.577 214.392 138.822 212.789 140.797C210.09 144.128 208.984 143.793 207.089 146.778C205.546 149.206 206.069 149.768 204.725 151.29C202.221 154.134 198.34 154.528 197.32 154.604C193.343 154.987 190.174 153.459 187.184 152.018C182.413 149.714 182.327 148.24 179.806 148.111C175.397 147.911 173.098 152.391 170.949 151.381C168.92 150.394 169.352 145.558 169.444 144.554ZM144.514 156.574C137.471 151.894 129.105 153.702 128.635 153.81C123.238 155.052 123.713 157.183 115.439 160.546C111.726 162.052 108.201 163.45 103.306 163.719C98.6754 163.973 94.9621 164.178 91.1084 162.176C89.2302 161.199 87.7568 159.925 85.6681 160.281C84.0489 160.557 82.3272 161.739 81.9656 163.336C81.4258 165.722 84.0651 168.415 86.3859 169.511C88.4476 170.482 89.8185 169.991 90.7037 171.249C91.5024 172.377 90.8224 173.37 91.157 175.162C91.6967 178.098 94.3954 179.906 95.1402 180.418C98.589 182.755 100.985 181.147 104.229 183.813C105.611 184.952 105.233 185.297 106.598 186.28C109.081 188.077 111.931 188.099 114.478 188.082C118.758 188.082 119.196 187.003 122.709 187.365C125.57 187.678 125.683 188.444 127.707 188.342C131.485 188.163 134.184 185.368 134.923 184.628C137.708 181.762 138.496 178.33 139.241 175.097C140.423 169.937 139.322 168.928 140.801 166.898C143.397 163.331 148.357 164.329 148.896 162.041C149.425 159.828 145.377 157.14 144.514 156.574Z" fill="#D9EDF4"/>
<path d="M212.347 132.598L212.346 132.599C212.189 132.723 212.031 132.842 211.87 132.96C212.031 132.836 212.192 132.712 212.352 132.586L212.351 132.585C212.48 132.485 212.608 132.384 212.735 132.283L212.347 132.598Z" fill="#0089B4" stroke="#0089B4" stroke-width="0.539721"/>
<path d="M184.858 180.188C186.008 178.191 187.859 174.289 187.373 169.507C186.898 164.838 184.442 161.659 181.242 157.633C176.843 152.101 175.148 152.328 169.676 146.212C165.255 141.269 162.832 138.554 162.028 134.339C160.948 128.634 162.373 124.861 163.863 122.432L133.207 128.105C131.717 130.534 129.186 135.521 130.27 141.225C131.075 145.446 133.509 148.161 137.924 153.099C143.391 159.214 145.086 158.988 149.49 164.52C152.685 168.541 155.146 171.72 155.616 176.394C156.102 181.176 154.25 185.083 153.101 187.075L184.858 180.188Z" fill="#FFCD52"/>
<path d="M148.475 128.503C166.787 124.901 181.295 120.266 180.878 118.152C180.462 116.037 165.281 117.243 146.969 120.846C128.657 124.448 114.15 129.083 114.566 131.198C114.982 133.312 130.164 132.106 148.475 128.503Z" stroke="#0089B4" stroke-width="0.539721" stroke-linecap="round" stroke-linejoin="round"/>
<path d="M40.2282 5.27357L33.7138 29.3991C33.4077 28.5982 33.1553 27.7778 32.9582 26.9434L38.3554 7.00607C38.9391 6.38618 39.5649 5.8073 40.2282 5.27357ZM35.6568 10.4981L32.3645 22.6094C32.2151 18.3326 33.3627 14.1106 35.6568 10.4981ZM43.7526 2.95277L35.592 33.1772C35.252 32.6374 34.9282 32.0383 34.6475 31.4554L42.0795 3.92966C42.6153 3.56787 43.1742 3.24154 43.7526 2.95277ZM47.0827 1.5333L37.7509 36.0755C37.3639 35.669 37.0033 35.2382 36.6715 34.7855L45.5175 2.10001C46.0269 1.87872 46.5497 1.68945 47.0827 1.5333ZM50.2671 0.734512L40.1041 38.3747C39.709 38.0545 39.3324 37.7121 38.9761 37.3492L48.7774 1.03676C48.8466 1.01794 48.9169 1.00352 48.9879 0.993579C49.4089 0.885634 49.8407 0.804676 50.2671 0.734512ZM53.2409 0.453857L42.5383 40.1126C42.1227 39.8589 41.7287 39.5728 41.3455 39.3138L51.8107 0.534816C52.2855 0.481099 52.763 0.454071 53.2409 0.453857ZM56.0853 0.561802L45.048 41.4403C44.6216 41.2514 44.2114 41.0571 43.8066 40.8358L54.7036 0.453857C55.166 0.459859 55.6275 0.495917 56.0853 0.561802ZM58.9242 1.05835L47.752 42.4388C47.3099 42.3239 46.8755 42.1814 46.4512 42.0124L57.5911 0.766896C58.0337 0.847854 58.487 0.939606 58.9242 1.05835ZM61.666 1.93809L50.5639 43.0918C50.1159 43.0271 49.6734 42.9461 49.2254 42.8436L60.3869 1.47933C60.8213 1.60872 61.2483 1.76187 61.666 1.93809ZM64.3376 3.21183L53.5108 43.3131C53.0466 43.3131 52.5771 43.3131 52.1237 43.2484L63.107 2.55337C63.5172 2.76386 63.9382 2.97436 64.3376 3.21183ZM66.8581 4.87417L56.5332 43.1296C56.0545 43.2075 55.5714 43.2562 55.0868 43.2753L65.6761 4.03761C66.0866 4.29239 66.4813 4.57175 66.8581 4.87417ZM69.2653 7.03306L59.696 42.4766C59.3236 42.5899 58.962 42.687 58.6166 42.7734L58.201 42.8598L68.1642 5.94282C68.5496 6.28723 68.9171 6.65112 69.2653 7.03306ZM71.4403 9.70468L62.9181 41.2784C62.4033 41.5336 61.8734 41.7571 61.3314 41.9476L70.4095 8.3122C70.786 8.75105 71.1305 9.21641 71.4403 9.70468ZM73.3833 13.1535L66.3346 39.2706C65.7904 39.6675 65.2207 40.0281 64.6291 40.35L72.4712 11.2969C72.8082 11.899 73.1126 12.5188 73.3833 13.1535ZM74.9431 18.324L70.2907 35.5357C69.6938 36.2859 69.0348 36.9846 68.3208 37.6245L74.2577 15.5229C74.4088 16.014 74.5491 16.5322 74.6679 17.0395C74.792 17.4767 74.873 17.9084 74.9431 18.324ZM72.93 31.5202L75.2022 23.1221C75.0334 26.0485 74.2597 28.908 72.93 31.5202Z" fill="#FFEDC5"/>
</g>
<defs>
<clipPath id="clip0_4193_56049">
<rect width="243.9" height="224.098" fill="white" transform="translate(0.0507812 0.451172)"/>
</clipPath>
</defs>
</svg>
