<svg width="4" height="14" viewBox="0 0 4 14" fill="none" xmlns="http://www.w3.org/2000/svg">
<path d="M1.9987 13.6666C1.54036 13.6666 1.14814 13.5035 0.822032 13.1774C0.495365 12.8508 0.332031 12.4583 0.332031 11.9999C0.332031 11.5416 0.495365 11.1491 0.822032 10.8224C1.14814 10.4963 1.54036 10.3333 1.9987 10.3333C2.45703 10.3333 2.84953 10.4963 3.1762 10.8224C3.50231 11.1491 3.66537 11.5416 3.66537 11.9999C3.66537 12.4583 3.50231 12.8508 3.1762 13.1774C2.84953 13.5035 2.45703 13.6666 1.9987 13.6666ZM1.9987 8.66658C1.54036 8.66658 1.14814 8.50325 0.822032 8.17658C0.495365 7.85047 0.332031 7.45825 0.332031 6.99992C0.332031 6.54158 0.495365 6.14909 0.822032 5.82242C1.14814 5.49631 1.54036 5.33325 1.9987 5.33325C2.45703 5.33325 2.84953 5.49631 3.1762 5.82242C3.50231 6.14909 3.66537 6.54158 3.66537 6.99992C3.66537 7.45825 3.50231 7.85047 3.1762 8.17658C2.84953 8.50325 2.45703 8.66658 1.9987 8.66658ZM1.9987 3.66659C1.54036 3.66659 1.14814 3.50325 0.822032 3.17659C0.495365 2.85047 0.332031 2.45825 0.332031 1.99992C0.332031 1.54159 0.495365 1.14936 0.822032 0.823252C1.14814 0.496585 1.54036 0.333252 1.9987 0.333252C2.45703 0.333252 2.84953 0.496585 3.1762 0.823252C3.50231 1.14936 3.66537 1.54159 3.66537 1.99992C3.66537 2.45825 3.50231 2.85047 3.1762 3.17659C2.84953 3.50325 2.45703 3.66659 1.9987 3.66659Z" fill="#1D2433" fill-opacity="0.8"/>
</svg>
