<svg width="96" height="114" viewBox="0 0 96 114" fill="none" xmlns="http://www.w3.org/2000/svg">
<path d="M87.5622 68.1094C86.904 67.7023 86.366 67.1273 86.0036 66.4436C85.6411 65.7598 85.4672 64.9919 85.4997 64.2187V52.3125C85.4923 51.6999 85.3649 51.0948 85.1247 50.5312C84.649 49.3858 83.7388 48.4756 82.5934 48C81.4522 47.5311 80.1722 47.5311 79.0309 48C78.4555 48.2231 77.9299 48.5576 77.4841 48.9844L31.2184 95.25C31.0919 95.4269 30.982 95.6152 30.8903 95.8125C30.6619 96.0467 30.472 96.3157 30.3278 96.6094C30.2068 96.8769 30.1278 97.1615 30.0934 97.4531C30.0445 97.748 30.0445 98.0489 30.0934 98.3437C30.0473 98.6702 30.0473 99.0016 30.0934 99.3281C30.0934 99.3281 30.0934 99.75 30.0934 99.9375V100.266C31.4284 104.567 34.2669 108.244 38.0899 110.625C41.913 113.005 46.4652 113.93 50.9142 113.23C55.3631 112.53 59.4116 110.253 62.3193 106.813C65.227 103.374 66.7996 99.0034 66.7497 94.5H80.2965C83.7196 94.5849 87.062 93.4545 89.7308 91.3092C92.3995 89.1639 94.2219 86.1425 94.8747 82.7812C95.3428 79.8782 94.8892 76.9014 93.5775 74.2696C92.2658 71.6377 90.162 69.4833 87.5622 68.1094ZM47.9997 103.875C46.439 103.865 44.9056 103.465 43.5386 102.712C42.1717 101.959 41.0143 100.876 40.1716 99.5625L45.2341 94.5H57.3747C57.3747 96.9864 56.387 99.3709 54.6288 101.129C52.8706 102.887 50.4861 103.875 47.9997 103.875ZM85.4997 81.2344C85.2198 82.3775 84.5538 83.389 83.6144 84.0979C82.6749 84.8067 81.5195 85.1695 80.3434 85.125H54.6091L76.1247 63.6094V64.2187C76.0964 66.6703 76.7248 69.0847 77.9447 71.2114C79.1647 73.338 80.9316 75.0993 83.0622 76.3125C83.9345 76.7722 84.6397 77.4954 85.0773 78.379C85.5149 79.2627 85.6627 80.2618 85.4997 81.2344ZM86.8591 11.4844L75.5622 22.7812C71.8647 18.5095 67.2498 15.1284 62.0622 12.8906C61.5507 9.57135 59.8681 6.54476 57.3189 4.3583C54.7697 2.17185 51.5222 0.96991 48.1637 0.96991C44.8053 0.96991 41.5578 2.17185 39.0086 4.3583C36.4594 6.54476 34.7768 9.57135 34.2653 12.8906C29.7083 14.7057 25.5517 17.3971 22.0309 20.8125C18.3971 24.2708 15.5018 28.4297 13.5199 33.038C11.538 37.6463 10.5106 42.6085 10.4997 47.625V64.2187C10.5322 64.9919 10.3583 65.7598 9.99579 66.4436C9.63332 67.1273 9.09536 67.7023 8.43719 68.1094C5.83734 69.4833 3.73361 71.6377 2.42191 74.2696C1.11021 76.9014 0.65653 79.8782 1.12469 82.7812C1.76944 86.3435 3.79 89.509 6.74969 91.5937L2.48406 95.8594C2.04471 96.2951 1.69599 96.8136 1.45801 97.3848C1.22003 97.956 1.09751 98.5687 1.09751 99.1875C1.09751 99.8063 1.22003 100.419 1.45801 100.99C1.69599 101.561 2.04471 102.08 2.48406 102.516C2.91983 102.955 3.43827 103.304 4.00948 103.542C4.5807 103.78 5.19338 103.902 5.81219 103.902C6.43099 103.902 7.04367 103.78 7.61489 103.542C8.1861 103.304 8.70455 102.955 9.14031 102.516L78.4684 33.1406L93.3278 18.3281C93.7649 17.891 94.1115 17.3722 94.3481 16.8011C94.5846 16.2301 94.7064 15.6181 94.7064 15C94.7064 14.3819 94.5846 13.7699 94.3481 13.1988C94.1115 12.6278 93.7649 12.1089 93.3278 11.6719C92.8907 11.2348 92.3719 10.8881 91.8008 10.6516C91.2298 10.415 90.6178 10.2933 89.9997 10.2933C89.3816 10.2933 88.7695 10.415 88.1985 10.6516C87.6275 10.8881 87.1086 11.2348 86.6716 11.6719L86.8591 11.4844ZM13.6403 84.7031C12.823 84.3845 12.1115 83.843 11.5867 83.1401C11.0619 82.4373 10.7448 81.6012 10.6716 80.7271C10.5983 79.853 10.7718 78.9758 11.1723 78.1954C11.5729 77.415 12.1843 76.7626 12.9372 76.3125C15.0677 75.0993 16.8347 73.338 18.0546 71.2114C19.2746 69.0847 19.903 66.6703 19.8747 64.2187V47.625C19.8757 42.2847 21.3971 37.0552 24.2609 32.5478C27.1247 28.0404 31.2126 24.4415 36.0466 22.1719C39.7709 20.3693 43.8623 19.4547 47.9997 19.5H49.0309C52.8633 19.6275 56.6221 20.5872 60.0466 22.3125C63.5024 24.0475 66.5779 26.4537 69.0934 29.3906L13.6403 84.7031Z" fill="#454B57"/>
</svg>
