<svg width="142" height="142" viewBox="0 0 142 142" fill="none" xmlns="http://www.w3.org/2000/svg">
<path d="M96.59 126.323C94.034 130.967 89.0924 134.105 83.4266 134.105H22.1252C13.8324 134.105 7.10156 127.388 7.10156 119.081V34.0516C7.10156 27.903 10.751 22.649 16.005 20.3344C15.8204 21.2716 15.721 22.2656 15.721 23.2596V111.285C15.721 119.592 22.4376 126.309 30.7446 126.309H96.59V126.323Z" fill="#454B57"/>
<path d="M96.5906 127.346H30.7594C21.9128 127.346 14.6992 120.146 14.6992 111.285V23.2454C14.6992 22.2088 14.7986 21.158 15.0116 20.1214C16.4742 12.6096 23.1056 7.17099 30.7594 7.17099H83.1432C83.413 7.17099 83.6686 7.28459 83.8674 7.46919L112.353 35.9544C112.551 36.1532 112.651 36.4088 112.651 36.6786V65.8596C112.651 66.3282 112.338 66.74 111.884 66.8536C111.415 66.9672 110.961 66.7684 110.734 66.3566C109.342 63.829 107.596 61.5144 105.537 59.4554C94.773 48.6918 77.946 47.2576 65.5494 56.0616C64.101 57.084 62.7378 58.2342 61.5024 59.4696C60.764 60.208 60.054 60.989 59.3298 61.8552C57.2282 64.4396 55.5668 67.3222 54.4024 70.4178C53.6782 72.3348 53.1528 74.2802 52.8404 76.1972C51.1364 86.1656 54.374 96.3612 61.5024 103.49C71.3288 113.288 86.6222 115.418 98.6922 108.658C99.0898 108.445 99.5868 108.502 99.9134 108.829L109.91 118.755C110.251 119.095 110.308 119.635 110.052 120.033C107.07 124.619 102.043 127.346 96.5906 127.346ZM30.7594 9.22999C24.0712 9.22999 18.2918 13.987 17.0138 20.519C16.8292 21.4278 16.744 22.3508 16.744 23.2454V111.285C16.744 119.01 23.0204 125.287 30.7452 125.287H96.5764C101.049 125.287 105.21 123.185 107.837 119.607L98.9904 110.817C86.2246 117.562 70.3206 115.19 60.0256 104.938C52.4286 97.341 48.978 86.478 50.7956 75.8706C51.1222 73.8258 51.6902 71.7526 52.4712 69.7078C53.7208 66.4134 55.4958 63.332 57.7394 60.5772C58.5062 59.6542 59.2588 58.8306 60.0398 58.0496C61.3604 56.729 62.8088 55.5078 64.3424 54.4144C77.5626 45.0282 95.483 46.5476 106.957 58.0212C108.291 59.356 109.498 60.7902 110.578 62.3096V37.1188L82.7172 9.22999H30.7594Z" fill="#454B57"/>
<path d="M111.614 100.394C111.344 100.394 111.089 100.295 110.89 100.096L110.052 99.258C109.711 98.9172 109.654 98.3776 109.924 97.98C110.208 97.5398 110.464 97.0712 110.719 96.6168C110.947 96.205 111.415 95.992 111.87 96.1056C112.324 96.2192 112.651 96.6168 112.651 97.0854V99.3716C112.651 99.7834 112.395 100.153 112.012 100.323C111.884 100.366 111.756 100.394 111.614 100.394Z" fill="#454B57"/>
<path d="M111.614 36.6928H90.3709C86.3665 36.6928 83.1289 33.4552 83.1289 29.4508V8.2218L111.614 36.6928Z" fill="#454B57"/>
<path d="M33.586 55.2522H64.9538C63.477 56.303 62.0854 57.4674 60.779 58.7738C59.9838 59.569 59.2454 60.3926 58.5496 61.2304H33.586C31.9246 61.2304 30.5898 59.8956 30.5898 58.2342C30.5898 56.6012 31.9246 55.2522 33.586 55.2522Z" fill="#454B57"/>
<path d="M53.4376 70.077C52.6992 72.0224 52.1454 74.0246 51.8188 76.0552H33.586C31.9246 76.0552 30.5898 74.7204 30.5898 73.059C30.5898 71.426 31.9246 70.0628 33.586 70.0628H53.4376V70.077Z" fill="#454B57"/>
<path d="M93.5231 73.059C93.5231 74.7204 92.1883 76.0552 90.5553 76.0552H62.6523C63.2061 73.9678 64.0723 71.9372 65.2367 70.077H90.5411C92.1883 70.077 93.5231 71.426 93.5231 73.059Z" fill="#454B57"/>
<path d="M48.5957 87.8696C48.5957 86.2224 47.2609 84.8876 45.6137 84.8876H33.5863C31.6693 84.8876 30.1925 86.691 30.7037 88.6648C31.0445 89.9996 32.3509 90.8658 33.7283 90.8658H45.6137C47.2609 90.8658 48.5957 89.531 48.5957 87.8696Z" fill="#454B57"/>
<path d="M134.9 124.846C134.9 127.246 133.963 129.49 132.244 131.194C130.569 132.912 128.297 133.849 125.883 133.849C123.469 133.849 121.211 132.912 119.521 131.194L98.4768 110.291C98.2496 110.064 98.1218 109.766 98.1644 109.425C98.2212 109.099 98.4058 108.829 98.6898 108.673C101.161 107.324 103.461 105.577 105.534 103.532C107.21 101.857 108.687 99.9964 109.894 98.0084C110.064 97.7386 110.348 97.554 110.646 97.5114C110.959 97.4972 111.257 97.5966 111.484 97.8238L132.23 118.471C133.963 120.16 134.9 122.432 134.9 124.846Z" fill="#454B57"/>
<path d="M83.5819 114.651C74.9625 114.651 66.4283 111.328 60.0383 104.952C52.4413 97.3552 48.9907 86.4922 50.8083 75.8848C51.1349 73.84 51.7029 71.7668 52.4839 69.722C53.7335 66.4276 55.5085 63.3462 57.7521 60.5914C58.5189 59.6684 59.2715 58.8448 60.0525 58.0638C61.3731 56.7432 62.8215 55.522 64.3551 54.4286C77.5753 45.0424 95.4957 46.5618 106.969 58.0354C109.156 60.2222 111.016 62.693 112.507 65.391C118.031 75.3168 118.031 87.6566 112.507 97.5966C112.223 98.1078 111.953 98.619 111.627 99.116C110.335 101.218 108.758 103.191 106.969 104.995C104.768 107.196 102.312 109.042 99.6705 110.49C94.6579 113.288 89.1057 114.651 83.5819 114.651ZM83.5251 50.3248C77.2629 50.3248 70.9865 52.2134 65.5337 56.0758C64.0853 57.0982 62.7221 58.2484 61.4867 59.4838C60.7483 60.2222 60.0383 61.0032 59.3141 61.8694C57.2125 64.4538 55.5511 67.3364 54.3867 70.432C53.6625 72.349 53.1371 74.2944 52.8247 76.2114C51.1207 86.1798 54.3583 96.3754 61.4867 103.504C71.3131 113.302 86.6065 115.432 98.6765 108.673C101.161 107.309 103.462 105.577 105.521 103.518C107.211 101.828 108.673 99.968 109.894 97.9942C110.193 97.5256 110.448 97.0712 110.704 96.6026C115.901 87.2448 115.901 75.6718 110.718 66.3708C109.326 63.8432 107.58 61.5286 105.521 59.4696C99.4859 53.4346 91.5339 50.3248 83.5251 50.3248ZM83.5251 104.058C77.7457 104.058 71.9521 101.857 67.5501 97.4688C61.9127 91.8314 59.6549 83.5244 61.6713 75.7996C62.2677 73.556 63.1765 71.4544 64.3693 69.5374C65.2497 68.1174 66.3289 66.7684 67.5501 65.5472C69.9215 63.1758 72.7047 61.4008 75.8287 60.2648C80.7987 58.4756 86.2373 58.4756 91.1647 60.2506C94.2319 61.3298 97.1145 63.1616 99.4859 65.533C103.746 69.793 106.103 75.473 106.103 81.508C106.103 87.543 103.76 93.2088 99.4859 97.483C95.0839 101.857 89.3045 104.058 83.5251 104.058ZM83.5393 60.9606C81.1679 60.9606 78.7965 61.3724 76.5245 62.1818C73.6845 63.2042 71.1569 64.823 68.9985 66.9814C67.8909 68.089 66.9253 69.3102 66.1159 70.6024C65.0225 72.349 64.1989 74.266 63.6593 76.3108C61.8275 83.3256 63.8723 90.88 68.9985 96.0062C77.0215 104.001 90.0429 104.001 98.0375 96.0062C101.914 92.1296 104.044 86.975 104.044 81.4796C104.044 75.9842 101.914 70.8296 98.0375 66.953C95.8791 64.7946 93.2663 63.1474 90.4831 62.1534C88.2395 61.3724 85.8823 60.9606 83.5393 60.9606Z" fill="#454B57"/>
</svg>
