<svg width="13" height="12" viewBox="0 0 13 12" fill="none" xmlns="http://www.w3.org/2000/svg">
<path d="M11.0102 11.5333L7.27682 7.8C6.94349 8.06667 6.56016 8.27778 6.12682 8.43333C5.69349 8.58889 5.23238 8.66667 4.74349 8.66667C3.53238 8.66667 2.50749 8.24733 1.66882 7.40867C0.829712 6.56956 0.410156 5.54444 0.410156 4.33333C0.410156 3.12222 0.829712 2.09711 1.66882 1.258C2.50749 0.419333 3.53238 0 4.74349 0C5.9546 0 6.97971 0.419333 7.81882 1.258C8.65749 2.09711 9.07682 3.12222 9.07682 4.33333C9.07682 4.82222 8.99905 5.28333 8.84349 5.71667C8.68793 6.15 8.47682 6.53333 8.21016 6.86667L11.9602 10.6167C12.0824 10.7389 12.1435 10.8889 12.1435 11.0667C12.1435 11.2444 12.0768 11.4 11.9435 11.5333C11.8213 11.6556 11.6657 11.7167 11.4768 11.7167C11.2879 11.7167 11.1324 11.6556 11.0102 11.5333ZM4.74349 7.33333C5.57682 7.33333 6.28527 7.04178 6.86882 6.45867C7.45193 5.87511 7.74349 5.16667 7.74349 4.33333C7.74349 3.5 7.45193 2.79156 6.86882 2.208C6.28527 1.62489 5.57682 1.33333 4.74349 1.33333C3.91016 1.33333 3.20171 1.62489 2.61816 2.208C2.03505 2.79156 1.74349 3.5 1.74349 4.33333C1.74349 5.16667 2.03505 5.87511 2.61816 6.45867C3.20171 7.04178 3.91016 7.33333 4.74349 7.33333Z" fill="#1D2433" fill-opacity="0.8"/>
</svg>
