<svg width="24" height="24" viewBox="0 0 24 24" fill="none" xmlns="http://www.w3.org/2000/svg">
<path d="M7.80957 2.5H16.1904C17.9108 2.50008 19.2239 3.011 20.1064 3.89355C20.989 4.77611 21.4999 6.08922 21.5 7.80957V16.1904C21.4999 17.9108 20.989 19.2239 20.1064 20.1064C19.2239 20.989 17.9108 21.4999 16.1904 21.5H7.80957C6.08922 21.4999 4.77611 20.989 3.89355 20.1064C3.011 19.2239 2.50008 17.9108 2.5 16.1904V7.80957C2.50009 6.08922 3.011 4.77611 3.89355 3.89355C4.77611 3.011 6.08922 2.50009 7.80957 2.5ZM10.2227 13.3975C9.76364 13.0334 9.10905 13.0272 8.65137 13.4004L8.55664 13.4863L7.17773 14.8643C6.72168 14.5339 6.09445 14.5391 5.65137 14.9004L5.5625 14.9805C5.06129 15.465 5.05962 16.2658 5.55664 16.7529V16.7539L6.30664 17.5039V17.5029C6.55528 17.7616 6.89049 17.8701 7.19043 17.8701C7.46639 17.87 7.74556 17.78 7.97754 17.5908L8.07324 17.5039L10.3232 15.2539C10.7781 14.799 10.807 14.0702 10.4092 13.5811L10.3232 13.4863L10.3174 13.4805L10.2227 13.3975ZM12.3096 14.6201C11.6236 14.6204 11.0596 15.1841 11.0596 15.8701C11.0596 16.5561 11.6237 17.1199 12.3096 17.1201H17.5596C18.26 17.1201 18.8095 16.5519 18.8096 15.8701C18.8096 15.1883 18.26 14.6201 17.5596 14.6201H12.3096ZM10.2227 6.39746C9.76364 6.03337 9.10905 6.02721 8.65137 6.40039L8.55664 6.48633L7.17773 7.86426C6.72168 7.53393 6.09445 7.53912 5.65137 7.90039L5.5625 7.98047C5.06129 8.46498 5.05962 9.26577 5.55664 9.75293V9.75391L6.30664 10.5039V10.5029C6.55528 10.7616 6.89049 10.8701 7.19043 10.8701C7.46639 10.87 7.74556 10.78 7.97754 10.5908L8.07324 10.5039L10.3232 8.25391C10.7781 7.79905 10.807 7.07019 10.4092 6.58105L10.3232 6.48633L10.3174 6.48047L10.2227 6.39746ZM12.3096 7.62012C11.6236 7.62035 11.0596 8.18412 11.0596 8.87012C11.0596 9.55606 11.6237 10.1199 12.3096 10.1201H17.5596C18.26 10.1201 18.8095 9.55185 18.8096 8.87012C18.8096 8.18833 18.26 7.62012 17.5596 7.62012H12.3096Z" fill="#0089B4" stroke="#0089B4"/>
</svg>
