<svg width="38" height="40" viewBox="0 0 38 40" fill="none" xmlns="http://www.w3.org/2000/svg">
<path opacity="0.4" d="M33.7032 15.4931H28.3265C23.9172 15.4931 20.3265 11.9024 20.3265 7.49307V2.11632C20.3265 1.09307 19.4893 0.255859 18.466 0.255859H10.5776C4.8474 0.255859 0.214844 3.9768 0.214844 10.6187V27.1024C0.214844 33.7442 4.8474 37.4652 10.5776 37.4652H25.2009C30.9311 37.4652 35.5637 33.7442 35.5637 27.1024V17.3535C35.5637 16.3303 34.7265 15.4931 33.7032 15.4931Z" fill="#6C707A"/>
<circle cx="30.4494" cy="32.1169" r="6.97674" fill="#6C707A"/>
<path d="M28.0078 32.1177H32.8915" stroke="white" stroke-width="0.697674" stroke-linecap="round" stroke-linejoin="round"/>
<path d="M30.4492 34.5595V29.6758" stroke="white" stroke-width="0.697674" stroke-linecap="round" stroke-linejoin="round"/>
<path d="M24.9587 0.647197C24.1959 -0.115593 22.875 0.405313 22.875 1.46578V7.95881C22.875 10.6751 25.182 12.9263 27.9913 12.9263C29.7587 12.9449 32.2145 12.9449 34.3169 12.9449C35.3773 12.9449 35.9355 11.6983 35.1913 10.9542C32.5122 8.25649 27.7122 3.40069 24.9587 0.647197Z" fill="#6C707A"/>
</svg>
