<svg width="45" height="44" viewBox="0 0 45 44" fill="none" xmlns="http://www.w3.org/2000/svg">
<path opacity="0.4" d="M37.8359 18.6815H32.5376C28.1926 18.6815 24.6543 15.1432 24.6543 10.7982V5.49984C24.6543 4.4915 23.8293 3.6665 22.8209 3.6665H15.0476C9.40094 3.6665 4.83594 7.33317 4.83594 13.8782V30.1215C4.83594 36.6665 9.40094 40.3332 15.0476 40.3332H29.4576C35.1043 40.3332 39.6693 36.6665 39.6693 30.1215V20.5148C39.6693 19.5065 38.8443 18.6815 37.8359 18.6815Z" fill="#809FB8"/>
<path d="M29.2213 4.05157C28.4696 3.29991 27.168 3.81324 27.168 4.85824V11.2566C27.168 13.9332 29.4413 16.1516 32.2096 16.1516C33.9513 16.1699 36.3713 16.1699 38.443 16.1699C39.488 16.1699 40.038 14.9416 39.3046 14.2082C36.6646 11.5499 31.9346 6.76491 29.2213 4.05157Z" fill="#809FB8"/>
<path d="M25.0039 25.2085H14.0039C13.2522 25.2085 12.6289 24.5852 12.6289 23.8335C12.6289 23.0818 13.2522 22.4585 14.0039 22.4585H25.0039C25.7556 22.4585 26.3789 23.0818 26.3789 23.8335C26.3789 24.5852 25.7556 25.2085 25.0039 25.2085Z" fill="#809FB8"/>
<path d="M21.3372 32.5415H14.0039C13.2522 32.5415 12.6289 31.9182 12.6289 31.1665C12.6289 30.4148 13.2522 29.7915 14.0039 29.7915H21.3372C22.0889 29.7915 22.7122 30.4148 22.7122 31.1665C22.7122 31.9182 22.0889 32.5415 21.3372 32.5415Z" fill="#809FB8"/>
</svg>
