<svg width="12" height="14" viewBox="0 0 12 14" fill="none" xmlns="http://www.w3.org/2000/svg">
<path d="M10.6667 1.66665H10V0.333313H8.66667V1.66665H3.33333V0.333313H2V1.66665H1.33333C0.593333 1.66665 0.00666666 2.26665 0.00666666 2.99998L0 12.3333C0 13.0666 0.593333 13.6666 1.33333 13.6666H10.6667C11.4 13.6666 12 13.0666 12 12.3333V2.99998C12 2.26665 11.4 1.66665 10.6667 1.66665ZM10.6667 12.3333H1.33333V5.66665H10.6667V12.3333ZM10.6667 4.33331H1.33333V2.99998H10.6667V4.33331ZM4 8.33331H2.66667V6.99998H4V8.33331ZM6.66667 8.33331H5.33333V6.99998H6.66667V8.33331ZM9.33333 8.33331H8V6.99998H9.33333V8.33331ZM4 11H2.66667V9.66665H4V11ZM6.66667 11H5.33333V9.66665H6.66667V11ZM9.33333 11H8V9.66665H9.33333V11Z" fill="#1D2433"/>
</svg>
