<svg width="32" height="32" viewBox="0 0 32 32" fill="none" xmlns="http://www.w3.org/2000/svg">
<rect width="32" height="32" rx="16" fill="#EDFDF8"/>
<path d="M14.8346 17.5L13.0221 15.6875C12.8694 15.5347 12.6785 15.462 12.4496 15.4692C12.2202 15.4759 12.0291 15.5556 11.8763 15.7084C11.7235 15.8611 11.6471 16.0556 11.6471 16.2917C11.6471 16.5278 11.7235 16.7222 11.8763 16.875L14.2513 19.25C14.4041 19.4028 14.5985 19.4792 14.8346 19.4792C15.0707 19.4792 15.2652 19.4028 15.418 19.25L20.1471 14.5209C20.2999 14.3681 20.373 14.177 20.3663 13.9475C20.3591 13.7186 20.2791 13.5278 20.1263 13.375C19.9735 13.2222 19.7791 13.1459 19.543 13.1459C19.3069 13.1459 19.1124 13.2222 18.9596 13.375L14.8346 17.5ZM16.0013 24.3334C14.8485 24.3334 13.7652 24.1145 12.7513 23.6767C11.7374 23.2395 10.8555 22.6459 10.1055 21.8959C9.35547 21.1459 8.76186 20.2639 8.32464 19.25C7.88686 18.2361 7.66797 17.1528 7.66797 16C7.66797 14.8472 7.88686 13.7639 8.32464 12.75C8.76186 11.7361 9.35547 10.8542 10.1055 10.1042C10.8555 9.35419 11.7374 8.7603 12.7513 8.32252C13.7652 7.8853 14.8485 7.66669 16.0013 7.66669C17.1541 7.66669 18.2374 7.8853 19.2513 8.32252C20.2652 8.7603 21.1471 9.35419 21.8971 10.1042C22.6471 10.8542 23.2407 11.7361 23.678 12.75C24.1157 13.7639 24.3346 14.8472 24.3346 16C24.3346 17.1528 24.1157 18.2361 23.678 19.25C23.2407 20.2639 22.6471 21.1459 21.8971 21.8959C21.1471 22.6459 20.2652 23.2395 19.2513 23.6767C18.2374 24.1145 17.1541 24.3334 16.0013 24.3334ZM16.0013 22.6667C17.8485 22.6667 19.4216 22.0175 20.7205 20.7192C22.0188 19.4203 22.668 17.8472 22.668 16C22.668 14.1528 22.0188 12.5797 20.7205 11.2809C19.4216 9.98252 17.8485 9.33335 16.0013 9.33335C14.1541 9.33335 12.5813 9.98252 11.283 11.2809C9.98408 12.5797 9.33464 14.1528 9.33464 16C9.33464 17.8472 9.98408 19.4203 11.283 20.7192C12.5813 22.0175 14.1541 22.6667 16.0013 22.6667Z" fill="#08875D"/>
</svg>
