<svg width="12" height="12" viewBox="0 0 12 12" fill="none" xmlns="http://www.w3.org/2000/svg">
<path d="M5.9987 7.16671L1.91536 11.25C1.76259 11.4028 1.56814 11.4792 1.33203 11.4792C1.09592 11.4792 0.901475 11.4028 0.748698 11.25C0.59592 11.0973 0.519531 10.9028 0.519531 10.6667C0.519531 10.4306 0.59592 10.2362 0.748698 10.0834L4.83203 6.00004L0.748698 1.91671C0.59592 1.76393 0.519531 1.56949 0.519531 1.33337C0.519531 1.09726 0.59592 0.902818 0.748698 0.75004C0.901475 0.597263 1.09592 0.520874 1.33203 0.520874C1.56814 0.520874 1.76259 0.597263 1.91536 0.75004L5.9987 4.83337L10.082 0.75004C10.2348 0.597263 10.4293 0.520874 10.6654 0.520874C10.9015 0.520874 11.0959 0.597263 11.2487 0.75004C11.4015 0.902818 11.4779 1.09726 11.4779 1.33337C11.4779 1.56949 11.4015 1.76393 11.2487 1.91671L7.16536 6.00004L11.2487 10.0834C11.4015 10.2362 11.4779 10.4306 11.4779 10.6667C11.4779 10.9028 11.4015 11.0973 11.2487 11.25C11.0959 11.4028 10.9015 11.4792 10.6654 11.4792C10.4293 11.4792 10.2348 11.4028 10.082 11.25L5.9987 7.16671Z" fill="#1D2433" fill-opacity="0.8"/>
</svg>
