<svg width="5" height="8" viewBox="0 0 5 8" fill="none" xmlns="http://www.w3.org/2000/svg">
<path d="M0.464583 7.5332C0.342361 7.41098 0.28125 7.25542 0.28125 7.06654C0.28125 6.87765 0.342361 6.72209 0.464583 6.59987L3.06458 3.99987L0.464583 1.39987C0.342361 1.27765 0.28125 1.12209 0.28125 0.933203C0.28125 0.744314 0.342361 0.588758 0.464583 0.466536C0.586805 0.344314 0.742361 0.283203 0.93125 0.283203C1.12014 0.283203 1.27569 0.344314 1.39792 0.466536L4.46458 3.5332C4.53125 3.59987 4.57858 3.67209 4.60658 3.74987C4.63414 3.82765 4.64792 3.91098 4.64792 3.99987C4.64792 4.08876 4.63414 4.17209 4.60658 4.24987C4.57858 4.32765 4.53125 4.39987 4.46458 4.46654L1.39792 7.5332C1.27569 7.65542 1.12014 7.71654 0.93125 7.71654C0.742361 7.71654 0.586805 7.65542 0.464583 7.5332Z" fill="#6C707A"/>
</svg>
